grf
version=1
nRows=16
nColumns=46
inDegrees=yes
endheader
time	ground_force_1_vx	ground_force_1_vy	ground_force_1_vz	ground_force_1_px	ground_force_1_py	ground_force_1_pz	ground_moment_1_mx	ground_moment_1_my	ground_moment_1_mz	ground_force_2_vx	ground_force_2_vy	ground_force_2_vz	ground_force_2_px	ground_force_2_py	ground_force_2_pz	ground_moment_2_mx	ground_moment_2_my	ground_moment_2_mz	ground_force_3_vx	ground_force_3_vy	ground_force_3_vz	ground_force_3_px	ground_force_3_py	ground_force_3_pz	ground_moment_3_mx	ground_moment_3_my	ground_moment_3_mz	ground_force_4_vx	ground_force_4_vy	ground_force_4_vz	ground_force_4_px	ground_force_4_py	ground_force_4_pz	ground_moment_4_mx	ground_moment_4_my	ground_moment_4_mz	ground_force_5_vx	ground_force_5_vy	ground_force_5_vz	ground_force_5_px	ground_force_5_py	ground_force_5_pz	ground_moment_5_mx	ground_moment_5_my	ground_moment_5_mz
0.000000	0.000000	0.000000	0.000000	0.000000	0.000000	0.000000	0.000000	0.000000	0.000000	0.000000	0.000000	0.000000	0.000000	0.000000	0.000000	0.000000	0.000000	0.000000	0.000000	0.000000	0.000000	0.000000	0.000000	0.000000	0.000000	0.000000	0.000000	3.333232	447.453628	-108.884777	0.193121	0.000000	-0.892794	0.000000	4.555524	0.000000	-1.279623	438.712763	114.070160	0.208313	0.000000	-1.585909	-0.000000	-3.617482	-0.000000
0.000500	0.000000	0.000000	0.000000	0.000000	0.000000	0.000000	0.000000	0.000000	0.000000	0.000000	0.000000	0.000000	0.000000	0.000000	0.000000	0.000000	0.000000	0.000000	0.000000	0.000000	0.000000	0.000000	0.000000	0.000000	0.000000	0.000000	0.000000	3.347545	447.494199	-108.940893	0.193145	0.000000	-0.892785	0.000000	4.559237	0.000000	-1.307692	438.807190	114.058780	0.208312	0.000000	-1.585916	-0.000000	-3.619786	-0.000000
0.001000	0.000000	0.000000	0.000000	0.000000	0.000000	0.000000	0.000000	0.000000	0.000000	0.000000	0.000000	0.000000	0.000000	0.000000	0.000000	0.000000	0.000000	0.000000	0.000000	0.000000	0.000000	0.000000	0.000000	0.000000	0.000000	0.000000	0.000000	3.361099	447.536367	-108.997594	0.193170	0.000000	-0.892775	0.000000	4.562902	0.000000	-1.335662	438.901943	114.047278	0.208311	0.000000	-1.585922	-0.000000	-3.622074	-0.000000
0.001500	0.000000	0.000000	0.000000	0.000000	0.000000	0.000000	0.000000	0.000000	0.000000	0.000000	0.000000	0.000000	0.000000	0.000000	0.000000	0.000000	0.000000	0.000000	0.000000	0.000000	0.000000	0.000000	0.000000	0.000000	0.000000	0.000000	0.000000	3.373809	447.580164	-109.054782	0.193196	0.000000	-0.892764	0.000000	4.566513	0.000000	-1.363447	438.996753	114.035686	0.208310	0.000000	-1.585928	-0.000000	-3.624338	-0.000000
0.002000	0.000000	0.000000	0.000000	0.000000	0.000000	0.000000	0.000000	0.000000	0.000000	0.000000	0.000000	0.000000	0.000000	0.000000	0.000000	0.000000	0.000000	0.000000	0.000000	0.000000	0.000000	0.000000	0.000000	0.000000	0.000000	0.000000	0.000000	3.385597	447.625598	-109.112360	0.193224	0.000000	-0.892752	0.000000	4.570063	0.000000	-1.390974	439.091372	114.024031	0.208309	0.000000	-1.585935	-0.000000	-3.626566	-0.000000
0.002500	0.000000	0.000000	0.000000	0.000000	0.000000	0.000000	0.000000	0.000000	0.000000	0.000000	0.000000	0.000000	0.000000	0.000000	0.000000	0.000000	0.000000	0.000000	0.000000	0.000000	0.000000	0.000000	0.000000	0.000000	0.000000	0.000000	0.000000	3.396390	447.672656	-109.170231	0.193253	0.000000	-0.892738	0.000000	4.573544	0.000000	-1.418183	439.185576	114.012343	0.208308	0.000000	-1.585941	-0.000000	-3.628751	-0.000000
0.003000	0.000000	0.000000	0.000000	0.000000	0.000000	0.000000	0.000000	0.000000	0.000000	0.000000	0.000000	0.000000	0.000000	0.000000	0.000000	0.000000	0.000000	0.000000	0.000000	0.000000	0.000000	0.000000	0.000000	0.000000	0.000000	0.000000	0.000000	3.406120	447.721310	-109.228301	0.193284	0.000000	-0.892723	0.000000	4.576949	0.000000	-1.445027	439.279162	114.000649	0.208307	0.000000	-1.585948	-0.000000	-3.630885	-0.000000
0.003500	0.000000	0.000000	0.000000	0.000000	0.000000	0.000000	0.000000	0.000000	0.000000	0.000000	0.000000	0.000000	0.000000	0.000000	0.000000	0.000000	0.000000	0.000000	0.000000	0.000000	0.000000	0.000000	0.000000	0.000000	0.000000	0.000000	0.000000	3.414726	447.771519	-109.286481	0.193316	0.000000	-0.892706	0.000000	4.580270	0.000000	-1.471468	439.371945	113.988974	0.208307	0.000000	-1.585954	-0.000000	-3.632958	-0.000000
0.004000	0.000000	0.000000	0.000000	0.000000	0.000000	0.000000	0.000000	0.000000	0.000000	0.000000	0.000000	0.000000	0.000000	0.000000	0.000000	0.000000	0.000000	0.000000	0.000000	0.000000	0.000000	0.000000	0.000000	0.000000	0.000000	0.000000	0.000000	3.422155	447.823238	-109.344689	0.193350	0.000000	-0.892688	0.000000	4.583503	0.000000	-1.497481	439.463762	113.977342	0.208307	0.000000	-1.585960	-0.000000	-3.634966	-0.000000
0.004500	0.000000	0.000000	0.000000	0.000000	0.000000	0.000000	0.000000	0.000000	0.000000	0.000000	0.000000	0.000000	0.000000	0.000000	0.000000	0.000000	0.000000	0.000000	0.000000	0.000000	0.000000	0.000000	0.000000	0.000000	0.000000	0.000000	0.000000	3.428357	447.876418	-109.402853	0.193385	0.000000	-0.892669	0.000000	4.586646	0.000000	-1.523046	439.554469	113.965776	0.208307	0.000000	-1.585967	-0.000000	-3.636901	-0.000000
0.005000	0.000000	0.000000	0.000000	0.000000	0.000000	0.000000	0.000000	0.000000	0.000000	0.000000	0.000000	0.000000	0.000000	0.000000	0.000000	0.000000	0.000000	0.000000	0.000000	0.000000	0.000000	0.000000	0.000000	0.000000	0.000000	0.000000	0.000000	3.433287	447.931003	-109.460908	0.193421	0.000000	-0.892648	0.000000	4.589696	0.000000	-1.548145	439.643936	113.954300	0.208306	0.000000	-1.585973	-0.000000	-3.638759	-0.000000
0.005500	0.000000	0.000000	0.000000	0.000000	0.000000	0.000000	0.000000	0.000000	0.000000	0.000000	0.000000	0.000000	0.000000	0.000000	0.000000	0.000000	0.000000	0.000000	0.000000	0.000000	0.000000	0.000000	0.000000	0.000000	0.000000	0.000000	0.000000	3.436907	447.986933	-109.518794	0.193459	0.000000	-0.892626	0.000000	4.592652	0.000000	-1.572758	439.732029	113.942936	0.208306	0.000000	-1.585980	-0.000000	-3.640536	-0.000000
0.006000	0.000000	0.000000	0.000000	0.000000	0.000000	0.000000	0.000000	0.000000	0.000000	0.000000	0.000000	0.000000	0.000000	0.000000	0.000000	0.000000	0.000000	0.000000	0.000000	0.000000	0.000000	0.000000	0.000000	0.000000	0.000000	0.000000	0.000000	3.439187	448.044140	-109.576457	0.193499	0.000000	-0.892602	0.000000	4.595511	0.000000	-1.596869	439.818611	113.931707	0.208307	0.000000	-1.585987	-0.000000	-3.642227	-0.000000
0.006500	0.000000	0.000000	0.000000	0.000000	0.000000	0.000000	0.000000	0.000000	0.000000	0.000000	0.000000	0.000000	0.000000	0.000000	0.000000	0.000000	0.000000	0.000000	0.000000	0.000000	0.000000	0.000000	0.000000	0.000000	0.000000	0.000000	0.000000	3.440106	448.102561	-109.633845	0.193539	0.000000	-0.892577	0.000000	4.598271	0.000000	-1.620455	439.903540	113.920632	0.208307	0.000000	-1.585994	-0.000000	-3.643832	-0.000000
0.007000	0.000000	0.000000	0.000000	0.000000	0.000000	0.000000	0.000000	0.000000	0.000000	0.000000	0.000000	0.000000	0.000000	0.000000	0.000000	0.000000	0.000000	0.000000	0.000000	0.000000	0.000000	0.000000	0.000000	0.000000	0.000000	0.000000	0.000000	3.439642	448.162140	-109.690909	0.193581	0.000000	-0.892551	0.000000	4.600933	0.000000	-1.643495	439.986690	113.909729	0.208307	0.000000	-1.586001	-0.000000	-3.645346	-0.000000
0.007500	0.000000	0.000000	0.000000	0.000000	0.000000	0.000000	0.000000	0.000000	0.000000	0.000000	0.000000	0.000000	0.000000	0.000000	0.000000	0.000000	0.000000	0.000000	0.000000	0.000000	0.000000	0.000000	0.000000	0.000000	0.000000	0.000000	0.000000	3.437773	448.222829	-109.747600	0.193625	0.000000	-0.892523	0.000000	4.603498	0.000000	-1.665962	440.067948	113.899010	0.208307	0.000000	-1.586008	-0.000000	-3.646769	-0.000000
